<?xml version="1.0" encoding="utf-8"?>
<!-- Generator: Adobe Illustrator 27.0.0, SVG Export Plug-In . SVG Version: 6.00 Build 0)  -->
<svg version="1.1" id="Layer_1" xmlns="http://www.w3.org/2000/svg" xmlns:xlink="http://www.w3.org/1999/xlink" x="0px" y="0px"
	 viewBox="0 0 725 240" style="enable-background:new 0 0 725 240;" xml:space="preserve">
<style type="text/css">
	.st0{fill:#FFFFFF;stroke:#FFFFFF;stroke-width:3;stroke-miterlimit:10;}
	.st1{fill:#FFFFFF;}
</style>
<g>
	<path class="st0" d="M708.7,38c-2.3,0-4.2-0.4-5.9-1.2c-1.6-0.8-2.8-2-3.5-3.6c-0.7-1.6-0.9-3.5-0.6-5.8h2.3
		c-0.2,1.6-0.1,3.1,0.4,4.4c0.5,1.3,1.3,2.3,2.6,3c1.2,0.7,2.9,1.1,5,1.1c2,0,3.8-0.4,5.3-1.1s2.7-1.8,3.6-3.2
		c0.9-1.3,1.4-2.9,1.6-4.6c0.2-1.8,0-3.3-0.8-4.4c-0.8-1.1-1.8-2-3.2-2.5c-1.4-0.5-2.9-0.8-4.6-0.9h-2.8l0.3-2h2.8
		c2.9,0,5.1-0.7,6.8-2c1.7-1.3,2.6-3.1,2.9-5.3c0.2-1.7-0.2-3.1-1.2-4.3c-1-1.2-2.7-1.8-5.1-1.8c-2.2,0-4.1,0.6-5.8,2
		c-1.7,1.3-2.8,3-3.3,5h-2.3c0.4-1.7,1.1-3.2,2.2-4.5s2.5-2.4,4.1-3.2c1.7-0.8,3.5-1.2,5.5-1.2c2.1,0,3.7,0.3,5,1
		c1.3,0.7,2.2,1.6,2.8,2.9s0.7,2.6,0.6,4c-0.1,1.1-0.4,2.3-1,3.5c-0.6,1.2-1.4,2.2-2.5,3.1c-1.1,0.9-2.5,1.5-4.1,1.9
		c1.3,0.3,2.5,0.8,3.5,1.6c1,0.8,1.7,1.7,2.2,2.9c0.5,1.2,0.7,2.6,0.5,4.2c-0.2,2.1-0.9,4-2,5.7c-1.1,1.7-2.6,3-4.5,4
		S711.2,38,708.7,38z"/>
</g>
<path class="st0" d="M233.8,192.9c-9.1,0-17.3-1.8-24.7-5.5c-7.4-3.7-13.3-9.3-17.7-17c-4.4-7.7-6.6-17.6-6.6-29.7V50.5h9v89.8
	c0,10.5,1.7,19,5.2,25.5c3.5,6.5,8.2,11.2,14.3,14.2c6.1,3,12.9,4.5,20.5,4.5c7.9,0,14.8-1.5,20.7-4.5c5.9-3,10.6-7.7,14-14.2
	c3.4-6.5,5.1-15,5.1-25.5V50.5h8.8v90.2c0,12.1-2.1,22-6.4,29.7c-4.3,7.7-10.1,13.3-17.5,17C251.1,191.1,242.8,192.9,233.8,192.9z"
	/>
<path class="st0" d="M331.6,190.5v-140h43c10,0,18.1,1.6,24.3,4.8c6.2,3.2,10.8,7.5,13.9,12.8c3.1,5.3,4.6,11.1,4.6,17.2
	c0,7.5-1.6,13.6-4.7,18.4c-3.1,4.8-7.2,8.5-12.1,11c-4.9,2.5-10.1,4.2-15.6,5l1.4-2c5.9,0.1,11.4,1.7,16.6,4.8
	c5.2,3.1,9.4,7.1,12.7,12.2c3.3,5.1,4.9,10.9,4.9,17.6c0,6.7-1.5,12.9-4.6,18.7c-3.1,5.8-7.9,10.5-14.5,14.1
	c-6.6,3.6-15.2,5.4-25.7,5.4H331.6z M340.6,114.5h35.2c10.4,0,18.3-2.6,23.8-7.8c5.5-5.2,8.2-12.1,8.2-20.6c0-8.1-2.8-14.8-8.3-20.1
	c-5.5-5.3-13.6-7.9-24.3-7.9h-34.6V114.5z M340.6,182.7h35.6c11.2,0,19.8-2.7,25.9-8.2c6.1-5.5,9.1-13,9.1-22.6
	c0-8.8-3.2-16-9.7-21.5c-6.5-5.5-15.2-8.3-26.1-8.3h-34.8V182.7z"/>
<path class="st0" d="M465.8,190.5v-140H548v7.6h-73.2v58.4H542v7.8h-67.2v58.6H548v7.6H465.8z"/>
<path class="st0" d="M595.2,190.5v-140h36.6c16.7,0,30.3,2.8,40.8,8.3c10.5,5.5,18.4,13.6,23.5,24.1c5.1,10.5,7.7,23.3,7.7,38.2
	c0,13.9-2.4,26-7.3,36.4c-4.9,10.4-12.5,18.5-22.9,24.3c-10.4,5.8-24.1,8.7-41,8.7H595.2z M604.2,182.9h28.4
	c14.7,0,26.5-2.5,35.5-7.5s15.6-12.1,19.9-21.3c4.3-9.2,6.4-20.2,6.4-33c0-12.9-2.1-24.1-6.3-33.5c-4.2-9.4-10.8-16.7-19.7-21.8
	c-8.9-5.1-20.9-7.7-35.8-7.7h-28.4V182.9z"/>
<g>
	<path class="st1" d="M0.3,121c0-14.4,0-28.8,0-43.2c0-3,1.3-4.9,4-6.2c21.6-9.5,43.1-19.1,64.7-28.7c2-0.9,3.8-0.8,5.7,0
		c21.5,9.6,43.1,19.2,64.7,28.7c2.8,1.2,4,3.2,4,6.2c0,28.8,0,57.5,0,86.3c0,3.1-1.3,5-4.1,6.3c-21.5,9.5-43,19.1-64.5,28.7
		c-2,0.9-3.8,0.9-5.9,0c-21.5-9.6-43-19.2-64.5-28.7c-2.8-1.2-4.1-3.2-4.1-6.3C0.3,149.7,0.3,135.4,0.3,121z M11.3,85.5
		c0,0.4-0.1,0.6-0.1,0.8c0,24.7,0,49.3,0,74c0,1,0.5,1.4,1.3,1.7c17.4,7.7,34.8,15.4,52.1,23.2c0.5,0.2,1,0.4,1.6,0.6
		c0-0.5,0-0.8,0-1.1c0-24.5,0-49,0-73.5c0-1.1-0.4-1.5-1.3-1.9c-12.6-5.6-25.2-11.2-37.8-16.8C22,90.2,16.7,87.9,11.3,85.5z
		 M77.3,185.9c0.7-0.3,1.2-0.5,1.8-0.7c17.3-7.7,34.6-15.4,51.9-23c1.1-0.5,1.4-1.1,1.4-2.3c0-24.2,0-48.4,0-72.6c0-0.5,0-1.1,0-1.7
		c-0.7,0.3-1.2,0.5-1.8,0.7c-17.3,7.7-34.6,15.4-51.9,23c-1.1,0.5-1.4,1.1-1.4,2.3c0,24.2,0,48.4,0,72.6
		C77.3,184.6,77.3,185.1,77.3,185.9z M19.4,77c0.5,0.3,0.7,0.4,0.9,0.5C37.1,85,53.9,92.4,70.7,99.8c0.7,0.3,1.7,0.2,2.4-0.1
		c16.5-7.3,32.9-14.6,49.3-21.9c0.5-0.2,1-0.5,1.6-0.8c-0.5-0.3-0.8-0.5-1.2-0.6c-16.7-7.4-33.3-14.9-50-22.2
		c-0.7-0.3-1.7-0.2-2.4,0.1C54,61.6,37.6,68.9,21.1,76.2C20.6,76.4,20.2,76.7,19.4,77z"/>
</g>
<path class="st1" d="M159.2,177.2l-54.3-24.7c-2.8-1.3-4-4.5-2.7-7.3v0c1.3-2.8,4.5-4,7.3-2.7l54.3,24.7c2.8,1.3,4,4.5,2.7,7.3v0
	C165.2,177.3,162,178.5,159.2,177.2z"/>
</svg>
